<?xml version="1.0" standalone="no"?>
<!DOCTYPE svg PUBLIC "-//W3C//DTD SVG 20010904//EN"
 "http://www.w3.org/TR/2001/REC-SVG-20010904/DTD/svg10.dtd">
<svg version="1.0" xmlns="http://www.w3.org/2000/svg"
 width="4000.000000pt" height="4000.000000pt" viewBox="0 0 4000.000000 4000.000000"
 preserveAspectRatio="xMidYMid meet">
<metadata>
Created by potrace 1.14, written by Peter Selinger 2001-2017
</metadata>
<g transform="translate(0.000000,4000.000000) scale(0.100000,-0.100000)"
fill="#000000" stroke="none">
<path d="M5135 33478 c-3 -7 -4 -6077 -3 -13488 l3 -13475 3083 -3 3082 -2 0
13490 0 13490 -3080 0 c-2455 0 -3082 -3 -3085 -12z"/>
<path d="M15500 31005 l0 -2485 3300 0 3300 0 0 -11005 0 -11005 3103 2 3102
3 3 11003 2 11002 3280 0 3280 0 -2 2483 -3 2482 -9682 3 -9683 2 0 -2485z"/>
</g>
</svg>
