<?xml version="1.0" encoding="UTF-8" standalone="no"?>
<svg
   version="1.0"
   width="215.51584cm"
   height="43.58139cm"
   viewBox="0 0 6109.1104 1235.378"
   preserveAspectRatio="xMidYMid"
   id="svg18"
   sodipodi:docname="full.svg"
   inkscape:version="1.2.2 (732a01da63, 2022-12-09)"
   inkscape:export-filename="..\web\assets\logos\full.png"
   inkscape:export-xdpi="13.223938"
   inkscape:export-ydpi="13.223938"
   xmlns:inkscape="http://www.inkscape.org/namespaces/inkscape"
   xmlns:sodipodi="http://sodipodi.sourceforge.net/DTD/sodipodi-0.dtd"
   xmlns="http://www.w3.org/2000/svg"
   xmlns:svg="http://www.w3.org/2000/svg">
  <defs
     id="defs22">
    <rect
       x="1695.9099"
       y="-826.03961"
       width="1803.8008"
       height="30.344313"
       id="rect562" />
    <rect
       x="4006.6309"
       y="1946.6285"
       width="787.76227"
       height="74.097801"
       id="rect556" />
    <rect
       x="3606.7227"
       y="2156.8679"
       width="2510.7705"
       height="1208.2551"
       id="rect550" />
    <rect
       x="3978.7878"
       y="-748.1814"
       width="1741.7473"
       height="582.60547"
       id="rect544" />
    <rect
       x="3105.0017"
       y="179.58914"
       width="3227.8784"
       height="1422.5352"
       id="rect2537" />
    <rect
       x="2553.605"
       y="0"
       width="3501.0303"
       height="1577.3333"
       id="rect1805" />
    <rect
       x="2242.353"
       y="710.93793"
       width="2257.9871"
       height="866.39545"
       id="rect913" />
  </defs>
  <sodipodi:namedview
     id="namedview20"
     pagecolor="#ffffff"
     bordercolor="#000000"
     borderopacity="0.25"
     inkscape:showpageshadow="2"
     inkscape:pageopacity="0"
     inkscape:pagecheckerboard="true"
     inkscape:deskcolor="#d1d1d1"
     inkscape:document-units="pt"
     showgrid="false"
     inkscape:zoom="0.14829797"
     inkscape:cx="1604.877"
     inkscape:cy="1173.3134"
     inkscape:window-width="2880"
     inkscape:window-height="1796"
     inkscape:window-x="-12"
     inkscape:window-y="-12"
     inkscape:window-maximized="1"
     inkscape:current-layer="svg18"
     showguides="false" />
  <g
     transform="matrix(0.10442756,0,0,-0.10442756,-0.74329549,1235.378)"
     fill="#000000"
     stroke="none"
     id="g16"
     style="display:inline;fill:#00000;fill-opacity:1">
    <path
       d="m 18204,11799 c -122,-63 -255,-161 -347,-254 -213,-216 -305,-293 -401,-340 -104,-50 -247,-101 -425,-151 -217,-62 -517,-230 -720,-404 -42,-36 -112,-94 -156,-130 -44,-36 -125,-106 -180,-156 -55,-50 -188,-164 -295,-253 -322,-269 -438,-310 -735,-261 -137,22 -244,25 -296,6 -20,-7 -74,-38 -120,-69 -125,-83 -244,-143 -368,-186 -195,-68 -349,-189 -505,-396 -29,-38 -98,-132 -154,-207 -79,-107 -111,-142 -149,-164 -114,-65 -338,-215 -456,-306 -70,-54 -164,-124 -208,-155 -99,-69 -386,-323 -613,-544 -118,-114 -236,-244 -388,-426 -120,-145 -249,-295 -286,-335 -37,-40 -96,-108 -131,-150 -35,-43 -67,-78 -71,-78 -4,0 -84,-89 -177,-197 -94,-109 -218,-249 -276,-311 -58,-62 -179,-197 -268,-300 -199,-230 -373,-410 -544,-561 -71,-63 -173,-155 -225,-205 -110,-105 -206,-179 -340,-262 -117,-71 -156,-101 -242,-180 -72,-67 -128,-94 -258,-122 -73,-16 -78,-19 -158,-96 -50,-48 -99,-107 -122,-147 -42,-71 -79,-96 -125,-85 -42,11 -48,46 -25,142 l 21,85 -22,72 c -17,57 -23,111 -28,267 -6,161 -12,214 -34,305 -15,61 -32,136 -38,168 -9,47 -20,70 -61,118 -63,77 -93,89 -209,89 h -92 l -114,-61 c -119,-63 -149,-68 -158,-26 -2,12 -14,78 -25,147 -12,69 -30,168 -40,220 -10,52 -22,115 -26,140 -5,36 -17,55 -60,98 -30,30 -54,62 -54,71 0,21 140,161 161,161 9,0 44,-11 78,-25 35,-14 91,-29 126,-32 59,-5 65,-4 90,21 18,18 25,33 20,44 -18,47 -17,109 3,148 33,65 108,127 191,159 58,22 86,40 131,85 75,75 88,113 61,174 -14,32 -34,55 -68,78 -26,18 -106,91 -178,163 -113,114 -138,145 -195,245 -76,133 -140,204 -196,219 -21,5 -106,13 -188,17 -181,9 -192,15 -182,98 3,28 9,112 12,186 8,165 -1,205 -60,269 -63,68 -66,76 -65,208 2,177 -18,235 -127,353 -55,60 -78,98 -135,217 -123,258 -169,332 -264,421 -47,43 -111,93 -142,110 -87,46 -282,102 -355,102 -74,0 -377,-46 -433,-66 -52,-18 -189,-136 -405,-349 -96,-95 -194,-184 -217,-198 -56,-35 -88,-72 -117,-133 -23,-49 -29,-54 -118,-96 -101,-49 -212,-132 -296,-221 -52,-56 -79,-104 -142,-260 -25,-60 -64,-118 -177,-265 -158,-203 -186,-252 -202,-353 -20,-126 15,-220 114,-306 86,-74 88,-79 96,-238 8,-163 23,-211 97,-320 57,-83 107,-120 187,-141 74,-20 139,-66 173,-123 l 25,-44 -11,-141 c -22,-253 -17,-279 77,-388 87,-102 95,-148 73,-421 -15,-175 -10,-206 36,-249 26,-24 153,-105 255,-162 47,-27 49,-31 162,-261 63,-129 119,-252 125,-272 7,-22 14,-149 17,-293 5,-244 4,-258 -17,-320 -43,-128 -91,-160 -239,-160 -80,0 -101,-4 -164,-31 -40,-17 -99,-36 -132,-44 -33,-7 -114,-27 -180,-45 -192,-51 -263,-36 -395,81 -57,51 -202,153 -520,367 -52,35 -104,72 -115,82 -11,10 -58,42 -105,71 -47,28 -179,121 -293,206 -115,85 -270,195 -345,245 -75,50 -211,144 -302,209 -91,64 -199,138 -240,163 -100,61 -383,268 -388,284 -6,20 33,14 101,-14 35,-15 82,-27 109,-27 41,-1 57,6 118,48 39,26 101,82 138,124 36,42 157,167 267,278 219,220 255,271 255,353 0,88 -76,159 -155,144 -43,-8 -212,-108 -310,-183 -107,-82 -117,-85 -290,-85 -208,1 -335,17 -410,54 -33,17 -100,64 -149,105 -49,41 -98,77 -109,81 -34,11 -64,-16 -96,-85 -35,-76 -39,-121 -13,-144 9,-9 87,-51 172,-95 159,-82 189,-107 169,-143 -12,-23 -69,-39 -139,-39 -30,0 -66,-6 -80,-13 -23,-12 -25,-18 -25,-92 v -80 l -31,-3 c -26,-3 -56,14 -168,90 -186,127 -202,135 -235,117 -31,-18 -50,-66 -51,-134 0,-27 -7,-81 -15,-120 -22,-102 -38,-331 -32,-470 4,-99 10,-138 37,-220 30,-95 35,-103 100,-166 50,-48 95,-80 171,-119 57,-29 116,-61 131,-72 15,-10 66,-78 114,-151 92,-141 133,-190 176,-213 14,-7 40,-38 57,-67 38,-66 116,-343 137,-487 16,-104 28,-147 98,-350 21,-57 45,-154 56,-215 26,-154 53,-220 110,-270 40,-36 97,-169 130,-308 17,-72 40,-161 51,-196 10,-35 19,-76 19,-91 0,-56 34,-134 76,-177 48,-47 105,-68 171,-60 53,6 151,68 248,156 133,122 525,406 684,496 85,48 552,380 689,490 41,33 109,83 151,111 42,28 101,73 131,100 73,66 114,94 138,94 24,0 112,-94 112,-121 0,-28 -39,-49 -95,-49 -85,-1 -120,-25 -297,-206 -90,-92 -289,-294 -444,-448 -360,-361 -480,-504 -568,-680 -97,-193 -106,-226 -117,-403 -13,-229 -34,-278 -202,-478 -107,-127 -188,-202 -254,-232 -81,-37 -201,-56 -331,-51 -127,5 -144,12 -197,87 -16,24 -48,55 -70,70 -89,60 -240,269 -397,546 -62,110 -143,252 -182,315 -38,63 -83,147 -101,185 -18,39 -54,103 -80,143 -97,151 -130,252 -139,432 -6,141 -19,204 -91,440 -30,102 -62,221 -70,265 -22,127 -46,407 -48,565 -2,139 -1,148 25,205 41,89 58,174 65,325 14,303 -28,352 -221,260 -85,-41 -110,-65 -122,-116 -3,-16 -24,-87 -46,-159 -22,-71 -53,-180 -69,-242 -36,-139 -57,-188 -119,-279 -27,-40 -62,-99 -78,-131 -16,-32 -55,-98 -87,-147 -32,-50 -73,-122 -90,-160 -17,-39 -45,-93 -63,-120 -45,-69 -90,-202 -104,-305 -23,-176 26,-390 139,-601 68,-129 103,-180 166,-247 59,-63 61,-95 7,-130 -60,-38 -70,-51 -70,-92 0,-21 11,-63 25,-93 14,-29 25,-61 25,-70 0,-9 -18,-38 -40,-63 -22,-25 -40,-47 -40,-48 0,-1 7,-24 15,-51 16,-54 13,-80 -15,-111 -15,-17 -18,-46 -23,-175 C 501,1046 491,1007 433,926 367,835 278,727 210,655 125,565 98,529 60,451 8,347 0,316 12,274 33,196 127,140 209,155 c 69,13 87,54 56,128 -25,60 -20,74 54,148 55,55 75,69 99,69 54,0 82,-60 97,-213 9,-81 30,-112 88,-128 45,-12 177,-5 207,11 34,18 44,65 32,148 -14,92 -15,159 -3,166 10,7 21,-17 21,-46 0,-12 11,-35 24,-52 13,-17 38,-60 56,-96 18,-36 42,-78 53,-94 37,-53 55,-55 362,-46 158,4 292,12 307,18 65,26 88,90 51,142 -10,14 -41,72 -69,130 -55,111 -157,258 -198,285 -41,27 -75,1 -124,-92 -81,-156 -96,-153 -247,49 -138,185 -153,200 -207,207 -52,7 -68,33 -67,106 1,56 12,89 51,156 46,75 68,205 78,454 8,205 22,389 36,495 12,86 61,134 94,93 9,-11 28,-65 44,-119 15,-54 50,-171 77,-259 26,-88 66,-228 88,-312 22,-83 59,-200 82,-260 23,-59 64,-171 90,-248 55,-157 85,-222 136,-298 19,-29 46,-73 59,-98 26,-52 108,-164 163,-223 49,-53 208,-175 251,-194 19,-8 50,-18 68,-22 47,-11 1353,20 1500,36 37,4 67,16 105,41 28,20 89,57 133,83 45,26 137,87 205,137 245,177 595,413 613,413 5,0 27,13 50,28 22,16 78,54 124,85 138,94 218,166 337,305 93,108 155,214 155,265 0,76 -50,127 -125,127 -33,0 -46,-9 -123,-88 -85,-86 -243,-202 -353,-258 -27,-13 -82,-57 -123,-98 -54,-54 -89,-79 -132,-96 -96,-38 -248,-117 -283,-145 -17,-15 -43,-51 -56,-79 -39,-82 -80,-116 -216,-176 -108,-48 -152,-61 -166,-47 -2,3 19,50 46,105 45,87 52,111 60,190 14,135 43,177 145,206 60,18 111,50 137,86 25,35 62,222 55,274 -9,55 -40,106 -66,106 -39,0 -116,-50 -255,-165 -77,-64 -148,-121 -158,-127 -27,-14 -47,8 -47,53 0,42 43,170 70,209 10,14 34,59 55,100 45,89 166,263 265,380 40,47 99,123 130,170 66,96 91,121 390,390 118,106 249,225 291,264 127,120 297,268 346,303 26,18 54,45 64,59 25,38 381,384 395,384 7,0 23,-19 36,-42 21,-38 28,-43 58,-42 19,0 44,2 55,5 34,7 28,-27 -12,-72 -21,-23 -77,-77 -125,-118 -47,-42 -137,-131 -198,-199 -86,-94 -126,-130 -169,-151 -31,-16 -75,-44 -98,-62 -186,-149 -296,-245 -404,-351 -185,-182 -224,-273 -153,-358 14,-16 43,-35 64,-41 34,-10 44,-9 87,12 26,13 78,52 115,86 77,72 109,88 140,72 34,-18 16,-71 -79,-227 -76,-126 -98,-154 -173,-221 -217,-193 -342,-342 -386,-458 -14,-35 -14,-48 -4,-72 21,-52 52,-54 204,-16 75,19 151,45 171,57 20,13 85,82 145,155 87,105 126,143 187,184 97,64 148,112 176,164 20,36 22,60 27,260 4,187 8,226 23,257 11,20 69,88 131,151 139,140 188,201 233,291 19,38 58,106 86,150 28,45 73,122 100,171 114,210 166,274 457,568 151,153 283,283 292,288 24,13 79,-11 106,-46 39,-49 30,-91 -37,-181 -33,-43 -94,-117 -137,-164 -63,-70 -87,-106 -134,-205 -31,-66 -79,-158 -105,-205 -26,-47 -73,-133 -105,-192 -32,-59 -100,-167 -152,-240 -139,-194 -196,-319 -213,-463 -13,-109 -57,-170 -137,-189 -15,-3 -32,-15 -38,-25 -5,-11 -14,-79 -19,-153 -7,-111 -13,-143 -35,-193 -26,-57 -116,-288 -166,-424 -38,-103 -117,-194 -210,-241 -19,-9 -66,-27 -103,-40 -74,-24 -123,-59 -139,-99 -5,-14 -11,-102 -14,-195 -3,-139 -7,-176 -22,-205 -25,-49 -68,-76 -144,-90 -35,-7 -88,-21 -118,-32 -30,-10 -72,-19 -93,-19 -51,0 -86,-20 -140,-80 -66,-73 -74,-141 -23,-189 37,-35 72,-39 256,-30 96,4 396,8 665,9 682,1 1664,17 1758,29 151,19 175,55 157,236 -6,60 -26,187 -45,280 -19,94 -39,202 -45,240 -6,39 -22,106 -35,151 -14,44 -31,114 -40,154 -20,95 -52,163 -102,219 -37,42 -43,45 -101,49 -47,3 -81,-2 -144,-21 -140,-43 -170,-49 -245,-49 -144,1 -371,66 -413,119 -18,23 -20,40 -20,157 0,137 21,331 40,365 13,26 35,38 96,51 93,21 106,48 115,220 l 6,135 71,160 c 66,150 268,558 325,656 14,24 39,83 56,131 39,112 51,136 122,233 32,45 68,102 79,128 12,26 44,78 72,115 28,37 76,119 107,182 98,203 174,254 381,254 93,0 134,-6 213,-27 54,-15 108,-32 121,-39 25,-13 161,-173 216,-253 17,-24 44,-73 59,-108 31,-70 60,-97 103,-97 15,0 39,-11 55,-24 23,-20 25,-26 14,-39 -7,-9 -25,-19 -41,-22 -39,-8 -64,-39 -56,-67 3,-13 45,-66 92,-118 48,-52 99,-115 115,-139 31,-48 28,-26 64,-431 14,-157 30,-324 35,-371 15,-126 13,-154 -16,-226 -32,-80 -33,-130 -5,-419 14,-145 39,-301 90,-560 75,-387 91,-488 116,-748 22,-223 46,-289 139,-374 50,-47 85,-53 126,-25 48,33 49,40 50,213 0,183 8,225 46,261 24,22 33,24 117,22 82,-3 109,2 255,42 89,25 175,45 191,45 41,0 88,-43 116,-105 27,-62 35,-68 100,-75 l 49,-5 158,-179 c 170,-194 204,-248 238,-371 38,-140 93,-184 233,-185 157,0 314,51 424,138 29,23 76,77 104,119 29,43 100,128 159,188 69,71 111,122 118,145 6,19 18,105 27,190 20,189 23,206 41,225 17,16 49,3 184,-75 121,-70 427,-208 511,-230 134,-35 278,-37 426,-7 143,29 177,47 285,147 90,83 98,102 98,241 0,73 -7,123 -30,215 -28,113 -30,134 -40,439 -5,176 -12,362 -15,413 -12,195 -53,319 -191,571 -53,97 -136,248 -184,336 -48,88 -112,201 -142,250 -76,124 -89,152 -142,297 -53,148 -57,180 -21,204 23,15 70,15 547,6 308,-6 542,-7 569,-2 71,14 211,49 238,60 34,15 149,120 173,158 17,28 19,42 13,85 -4,29 -7,59 -7,67 1,8 2,40 3,70 1,49 -5,68 -51,160 -29,58 -95,173 -146,257 -52,83 -94,154 -94,157 0,12 43,5 114,-19 53,-18 96,-25 148,-25 89,0 108,-11 145,-83 80,-159 121,-193 245,-203 40,-3 145,-17 233,-31 124,-21 196,-26 320,-26 283,0 397,48 474,201 34,68 54,87 102,100 20,5 63,28 95,49 33,22 91,50 129,63 116,38 232,107 313,184 53,51 72,76 72,95 0,36 -6,42 -81,89 -90,57 -119,68 -275,102 -120,26 -158,40 -308,112 -94,45 -211,107 -261,137 -49,30 -112,63 -140,74 -60,23 -187,29 -207,9 -7,-7 -14,-44 -16,-82 -3,-42 -10,-74 -18,-81 -19,-16 -137,-14 -278,5 -139,19 -570,37 -841,35 -104,-1 -254,3 -332,8 -167,12 -236,4 -306,-33 -51,-27 -57,-28 -284,-35 -195,-7 -240,-11 -276,-27 -59,-26 -105,-75 -134,-144 -14,-32 -30,-58 -35,-58 -5,0 -14,-13 -19,-30 -17,-48 -27,-35 -27,38 0,37 -7,97 -16,134 -9,38 -14,79 -10,93 8,30 84,102 129,121 25,10 79,14 192,14 105,1 165,5 179,13 21,12 86,90 197,240 80,107 131,155 174,163 76,14 344,-3 466,-30 144,-32 184,-52 250,-122 55,-58 72,-63 130,-39 58,24 100,18 185,-24 98,-49 250,-105 325,-121 52,-10 62,-10 95,8 74,38 58,64 -116,193 -168,124 -192,154 -192,237 0,94 59,145 212,184 76,19 96,20 228,12 80,-5 235,-9 345,-9 162,1 212,4 265,19 91,25 198,76 244,117 57,50 76,101 110,302 9,50 57,102 125,136 77,39 113,49 211,60 60,7 131,27 238,66 146,52 159,60 275,147 221,168 287,252 287,369 0,30 -6,78 -14,105 -13,47 -31,327 -27,429 3,79 33,120 141,197 52,37 125,84 163,104 48,27 76,51 97,83 40,60 43,103 10,201 -10,30 -21,89 -25,131 -6,72 -5,77 20,107 26,31 98,72 128,72 10,0 65,20 123,45 115,49 259,94 481,149 228,58 415,127 508,190 224,152 918,751 983,848 24,37 27,53 30,137 3,90 2,99 -26,151 -83,156 -147,262 -165,271 -58,32 -250,-20 -373,-100 -55,-36 -396,-192 -544,-249 -140,-54 -360,-111 -431,-112 -20,0 -42,6 -48,14 -17,21 41,88 220,255 85,78 195,182 244,230 50,47 108,99 128,114 21,16 48,45 61,65 13,20 47,63 75,95 69,79 95,127 126,232 78,266 11,535 -133,535 -17,0 -56,-14 -88,-31 z m -136,-635 c -14,-45 -118,-153 -218,-225 -34,-24 -101,-75 -149,-113 -47,-37 -115,-89 -151,-114 -36,-25 -83,-61 -104,-80 -49,-43 -223,-127 -476,-230 -107,-44 -284,-118 -393,-166 -109,-47 -209,-86 -222,-86 -38,0 -32,33 20,100 55,71 138,128 242,165 187,67 297,116 384,173 129,84 194,111 283,121 87,10 99,16 336,174 130,87 187,133 269,216 58,58 118,116 135,129 l 30,22 13,-23 c 9,-19 9,-33 1,-63 z m 610,-978 c 8,-40 -261,-267 -388,-328 -72,-35 -80,-42 -80,-79 0,-36 -16,-47 -175,-121 -188,-88 -355,-153 -440,-173 -85,-19 -145,-34 -208,-51 -26,-7 -114,-23 -195,-34 -116,-17 -164,-29 -227,-57 -139,-61 -152,-64 -300,-68 -104,-2 -161,-9 -220,-25 -93,-25 -182,-29 -248,-11 -79,22 -127,11 -220,-53 -103,-70 -165,-92 -303,-106 -167,-17 -295,-37 -336,-54 -20,-9 -84,-45 -143,-80 -117,-72 -171,-94 -296,-126 -102,-26 -127,-39 -209,-105 -73,-59 -140,-95 -219,-119 -88,-26 -472,-86 -552,-86 -93,0 -130,-17 -234,-104 -56,-46 -101,-74 -150,-92 -38,-15 -124,-57 -190,-95 -66,-37 -140,-73 -165,-79 -25,-6 -63,-16 -85,-22 -68,-17 -256,-140 -293,-192 -18,-25 -59,-65 -90,-90 -31,-24 -66,-54 -77,-66 -11,-12 -53,-49 -93,-82 -75,-62 -249,-265 -277,-323 -18,-40 -21,-175 -3,-193 26,-26 81,-13 147,33 76,53 111,59 111,18 0,-37 -36,-108 -70,-136 -20,-17 -46,-26 -89,-30 -84,-9 -127,-34 -224,-130 -106,-105 -242,-182 -465,-262 -56,-20 -76,-23 -92,-15 -11,6 -20,13 -20,15 0,6 185,247 261,340 31,39 63,84 72,100 30,60 855,901 950,969 39,28 119,69 187,97 90,36 166,79 317,177 118,77 220,136 253,146 94,30 154,79 245,200 46,61 112,142 147,179 70,76 107,93 268,123 106,20 145,38 171,81 12,18 35,44 52,57 39,29 184,72 313,91 52,8 99,17 105,20 5,4 53,13 107,21 53,8 150,32 214,54 146,49 236,58 333,35 114,-26 124,-28 150,-21 14,4 71,50 128,104 73,70 114,101 143,110 23,6 97,12 165,12 143,0 172,10 257,82 84,72 114,78 445,89 288,9 290,9 420,45 73,19 197,57 277,84 160,54 240,70 344,70 93,0 267,27 332,51 33,13 78,43 120,81 72,65 100,80 184,97 30,6 69,20 85,31 36,24 68,22 73,-4 z M 16413,8779 c 33,-15 49,-48 45,-89 -2,-28 -14,-43 -63,-83 -83,-66 -146,-95 -240,-107 -109,-15 -231,-47 -285,-75 -25,-12 -76,-32 -115,-45 -38,-12 -115,-48 -170,-80 -153,-88 -245,-113 -418,-114 -85,-1 -110,2 -117,14 -5,8 -10,18 -10,21 -1,32 335,331 416,371 30,15 79,49 109,76 83,76 110,82 405,93 140,5 275,13 300,18 66,12 116,12 143,0 z M 5606,8599 c 244,-23 295,-48 479,-235 77,-78 156,-149 175,-159 25,-13 59,-19 116,-19 90,-1 114,-13 114,-55 0,-34 -39,-72 -128,-127 -77,-47 -96,-79 -71,-122 19,-35 75,-72 109,-72 40,0 263,78 278,98 6,8 12,31 12,49 0,19 7,47 15,63 14,27 147,140 166,140 25,0 40,-65 74,-315 21,-156 40,-348 46,-455 4,-102 10,-212 13,-245 9,-113 -34,-255 -153,-512 -28,-60 -55,-133 -61,-163 -15,-79 29,-914 51,-956 6,-11 30,-30 54,-42 52,-25 65,-48 93,-159 25,-99 52,-141 161,-248 45,-44 84,-90 87,-102 8,-30 -21,-74 -101,-153 l -65,-65 -118,-5 c -130,-6 -159,-17 -187,-69 -22,-43 -60,-66 -172,-104 -126,-42 -200,-85 -277,-162 -62,-61 -90,-110 -101,-177 -5,-29 -11,-39 -31,-44 -20,-5 -32,2 -67,39 -51,55 -79,67 -162,67 -47,0 -69,5 -86,19 -26,21 -25,22 26,106 19,31 25,54 25,100 0,69 -17,111 -85,216 -96,148 -158,293 -214,500 -28,102 -27,129 9,174 46,58 41,82 -38,172 -98,112 -115,146 -147,286 -3,16 -26,51 -51,77 -47,50 -52,74 -22,93 27,18 89,-18 263,-148 237,-178 219,-170 425,-189 265,-25 294,-14 479,180 63,66 122,137 132,159 25,54 27,259 3,293 -35,50 -96,21 -199,-94 -97,-108 -115,-115 -347,-127 -243,-14 -231,-18 -430,164 -93,86 -185,160 -236,190 -82,50 -82,51 -123,137 -100,212 -108,226 -152,257 -27,20 -47,45 -57,70 -20,55 -16,237 7,345 l 18,85 84,63 c 46,34 91,62 99,62 9,0 37,-23 62,-51 128,-146 146,-158 216,-144 28,5 62,31 154,121 65,63 125,114 134,114 20,0 41,-34 56,-90 26,-99 57,-129 114,-110 77,25 101,85 79,191 -16,78 -12,108 18,150 28,39 24,63 -16,93 -46,35 -65,74 -65,133 0,55 -24,102 -67,130 -25,17 -53,18 -350,15 -373,-4 -347,-11 -383,105 -33,106 -37,212 -12,311 27,104 41,133 72,149 31,16 112,16 256,2 z m 167,-801 c 73,-22 101,-49 95,-90 -4,-32 -49,-50 -134,-56 -95,-6 -178,5 -206,28 -45,36 -21,132 36,143 39,8 141,-4 209,-25 z m 6187,-1968 c 22,-11 47,-32 56,-45 16,-24 15,-27 -1,-45 -18,-20 -48,-28 -233,-61 -102,-18 -137,-30 -281,-97 -161,-75 -164,-77 -236,-156 -41,-45 -104,-119 -141,-164 -77,-96 -112,-122 -170,-122 -49,0 -81,29 -94,85 -17,75 23,137 158,243 23,18 74,71 112,118 98,116 116,124 277,122 149,-1 199,12 348,93 102,55 143,61 205,29 z m -1535,-541 c 0,-43 -6,-62 -25,-86 -43,-55 -231,-202 -339,-266 -57,-34 -140,-95 -183,-135 -86,-78 -109,-89 -152,-73 -72,28 -127,-2 -170,-92 -31,-66 -53,-86 -108,-98 -48,-11 -56,-17 -258,-182 -109,-89 -172,-132 -252,-173 -59,-30 -116,-54 -126,-54 -24,0 -59,37 -67,73 -14,54 -1,71 96,123 50,26 120,74 155,105 84,76 95,82 158,74 47,-6 60,-3 124,29 59,30 82,50 144,123 40,49 91,107 114,129 49,49 164,108 254,129 36,9 82,20 102,25 49,14 236,159 373,291 146,140 160,146 160,58 z m 3630,-18 c 244,-90 405,-143 492,-160 116,-24 139,-38 153,-93 6,-24 15,-59 21,-78 17,-66 9,-130 -16,-130 -7,0 -47,23 -88,50 -171,114 -205,115 -313,4 -40,-41 -75,-74 -79,-74 -13,0 -51,24 -110,70 -112,88 -147,95 -201,39 -15,-16 -38,-29 -51,-29 -12,0 -97,49 -188,109 -200,134 -261,155 -306,110 -18,-18 -20,-29 -15,-68 13,-101 14,-96 -22,-99 -31,-3 -40,-13 -105,-113 -67,-104 -72,-110 -101,-107 l -31,3 1,65 c 1,36 5,86 9,111 7,42 5,49 -22,78 -28,32 -31,33 -128,38 -63,3 -181,-2 -320,-15 -377,-36 -409,-37 -428,-18 -30,31 -16,119 21,130 10,4 58,8 106,11 92,5 247,38 376,80 64,21 138,33 410,68 19,3 69,12 110,22 87,19 354,34 580,31 148,-2 159,-3 245,-35 z m -2230,-208 c -4,-16 -8,-38 -11,-51 -3,-13 9,-72 25,-130 17,-59 35,-145 40,-192 12,-109 1,-140 -61,-168 -58,-25 -537,-152 -576,-152 -68,0 -142,-39 -228,-122 -86,-82 -100,-104 -89,-137 11,-37 53,-43 252,-39 152,4 216,10 333,32 171,33 326,73 357,92 31,20 53,65 64,135 12,77 25,97 71,111 49,15 222,-1 458,-42 189,-32 329,-38 369,-16 13,7 45,49 70,92 26,43 53,80 61,81 24,5 193,-160 189,-183 -2,-10 -33,-38 -69,-62 -36,-23 -66,-49 -68,-56 -5,-24 36,-42 142,-65 55,-12 106,-27 113,-33 18,-15 16,-63 -4,-79 -26,-22 -276,-25 -413,-4 -103,15 -123,22 -241,81 -142,71 -182,78 -254,45 -22,-10 -57,-21 -77,-25 -28,-5 -59,-26 -114,-77 -48,-45 -98,-81 -138,-98 -72,-33 -131,-94 -147,-153 -12,-48 4,-89 88,-214 33,-49 74,-117 91,-150 17,-34 63,-115 102,-180 40,-65 80,-139 91,-165 10,-26 43,-98 74,-159 87,-174 190,-446 233,-615 52,-207 24,-398 -97,-670 -73,-164 -113,-221 -172,-245 -25,-11 -36,-8 -91,21 -35,18 -101,44 -147,59 -47,15 -87,32 -89,38 -2,6 22,29 52,52 31,22 63,53 73,68 9,15 33,52 54,83 82,121 116,249 125,469 9,209 -3,278 -72,420 -58,120 -146,274 -199,350 -51,72 -253,414 -283,477 -22,49 -27,72 -26,143 0,76 4,94 37,169 41,94 46,135 19,150 -36,19 -112,-50 -161,-147 -35,-68 -54,-159 -48,-229 6,-77 32,-133 166,-363 140,-238 316,-598 341,-696 35,-135 20,-283 -39,-389 -15,-27 -59,-107 -98,-176 -79,-143 -140,-232 -207,-301 -40,-42 -51,-48 -86,-48 -81,0 -175,70 -260,195 l -34,50 -7,150 c -7,171 -30,271 -84,372 -45,81 -52,115 -60,258 -5,112 -7,122 -31,143 -35,31 -68,28 -111,-12 -57,-52 -56,-102 2,-351 43,-187 47,-213 54,-390 9,-223 3,-277 -35,-316 -31,-32 -85,-47 -118,-31 -32,14 -193,341 -261,530 -70,194 -76,206 -121,227 -45,21 -92,14 -125,-21 -22,-24 -24,-34 -23,-122 0,-95 1,-99 58,-232 75,-176 102,-224 231,-414 84,-123 118,-165 154,-188 48,-31 64,-32 182,-12 56,9 63,-7 49,-118 -39,-318 -101,-528 -172,-581 -54,-41 -313,-45 -389,-6 -47,23 -135,120 -147,161 -6,18 -13,132 -16,253 -7,247 -22,345 -83,519 -52,151 -146,328 -204,386 -82,82 -155,88 -179,16 -15,-45 -9,-62 56,-168 62,-100 125,-236 150,-323 24,-86 15,-241 -21,-355 -15,-47 -32,-91 -37,-97 -33,-41 -72,27 -109,190 -59,259 -155,544 -271,807 -33,74 -72,173 -88,220 -15,47 -82,194 -148,328 -66,133 -125,264 -131,290 -6,26 -36,178 -66,337 -65,334 -82,382 -160,453 -57,52 -106,72 -181,72 -57,0 -94,9 -94,21 0,5 42,9 93,9 129,0 160,10 179,59 15,37 19,40 114,71 118,38 150,54 163,78 18,33 85,71 166,93 47,12 149,57 250,108 173,88 495,242 685,327 l 105,48 155,6 c 178,7 201,15 297,102 70,63 126,88 278,123 116,27 121,28 166,12 82,-30 92,-26 193,71 113,109 155,142 184,142 19,0 22,-4 17,-27 z M 2525,3914 c 48,-53 119,-114 192,-166 112,-80 288,-242 327,-302 31,-47 68,-56 240,-56 184,0 199,-5 332,-105 115,-87 152,-122 173,-165 29,-56 33,-87 16,-119 -17,-34 -25,-37 -116,-50 -83,-11 -152,-47 -299,-151 -127,-90 -314,-211 -430,-277 -51,-30 -86,-43 -112,-43 -43,0 -49,9 -68,90 -10,47 -195,435 -275,580 -14,25 -25,53 -25,63 0,22 77,106 151,163 71,54 87,89 65,136 -18,38 -118,118 -204,163 -68,37 -152,125 -152,160 0,45 31,139 51,157 10,9 28,14 38,11 11,-3 54,-43 96,-89 z m 3532,-20 c 18,-14 33,-31 33,-38 0,-19 -22,-36 -45,-36 -12,0 -42,-14 -67,-30 -71,-47 -97,-25 -77,68 6,29 19,62 30,73 18,18 22,18 56,4 20,-9 52,-27 70,-41 z M 969,3325 c 8,-8 14,-33 15,-57 0,-34 -9,-58 -41,-112 -47,-77 -59,-130 -44,-196 12,-54 14,-160 3,-160 -5,0 -16,6 -25,13 -24,18 -147,219 -147,240 0,10 13,46 29,80 16,34 40,89 53,122 18,48 30,64 58,78 37,19 75,16 99,-8 z"
       id="path2"
       style="fill:#00000;fill-opacity:1" />
    <path
       d="m 6442,7644 c -28,-19 -28,-38 3,-121 48,-127 97,-167 205,-165 137,2 221,47 256,137 17,46 15,108 -5,128 -6,6 -69,11 -140,13 -72,2 -148,8 -168,13 -55,16 -125,13 -151,-5 z"
       id="path4"
       style="fill:#00000;fill-opacity:1" />
    <path
       d="m 6091,7077 c -18,-12 -59,-38 -90,-58 -45,-29 -57,-42 -59,-66 -6,-64 95,-133 195,-133 74,0 198,29 224,53 18,16 20,27 15,61 -9,54 -51,105 -116,139 -65,34 -122,36 -169,4 z"
       id="path6"
       style="fill:#00000;fill-opacity:1" />
    <path
       d="m 5957,6686 c -45,-17 -102,-59 -123,-92 -16,-23 -15,-26 11,-65 54,-77 259,-229 310,-229 30,0 165,78 305,177 54,38 83,97 72,149 -12,59 -30,64 -227,63 -93,0 -201,2 -240,5 -48,4 -82,2 -108,-8 z"
       id="path8"
       style="fill:#00000;fill-opacity:1" />
    <path
       d="m 11148,3911 c -15,-5 -40,-18 -55,-29 -36,-25 -112,-171 -148,-282 -15,-47 -36,-101 -46,-121 -25,-50 -84,-101 -164,-140 l -68,-33 -336,-1 h -336 l -56,26 c -76,36 -104,69 -124,148 -50,199 -225,312 -464,298 -103,-6 -156,-20 -165,-43 -8,-20 24,-98 94,-229 32,-60 74,-153 93,-205 20,-52 72,-176 116,-275 l 80,-180 96,-92 c 187,-180 281,-195 486,-77 156,90 194,105 269,111 79,6 109,-11 180,-102 71,-91 81,-87 156,59 73,141 105,178 190,218 72,34 142,39 237,18 88,-20 90,-18 85,113 -3,77 -9,121 -20,142 -10,20 -20,82 -28,178 -15,191 -8,224 66,307 60,68 86,112 78,133 -3,8 -19,25 -37,38 -35,26 -128,36 -179,20 z"
       id="path10"
       style="fill:#00000;fill-opacity:1" />
    <path
       d="m 2050,7409 c -47,-22 -87,-53 -146,-113 -45,-46 -89,-96 -97,-113 -19,-35 -79,-239 -102,-344 -9,-43 -18,-147 -22,-251 l -6,-177 30,-30 c 38,-37 101,-55 180,-48 79,6 129,36 153,91 10,23 29,130 44,241 58,440 65,469 147,622 27,50 49,100 49,111 0,51 -132,58 -230,11 z"
       id="path12"
       style="fill:#00000;fill-opacity:1" />
    <path
       d="m 6902,2768 c -7,-7 -12,-33 -12,-59 0,-67 -5,-74 -71,-115 -74,-44 -81,-66 -42,-131 l 28,-48 -3,-247 c -2,-165 1,-260 8,-289 17,-61 72,-113 143,-134 70,-20 84,-14 122,57 l 29,53 -1,340 c -1,340 -1,340 -27,420 -36,110 -45,124 -88,146 -43,22 -69,24 -86,7 z"
       id="path14"
       style="fill:#00000;fill-opacity:1" />
  </g>
  <text
     xml:space="preserve"
     transform="matrix(4.341964,0,0,4.3009673,-16538.703,-406.08431)"
     id="text2535"
     style="font-style:normal;font-variant:normal;font-weight:normal;font-stretch:normal;font-size:192px;font-family:Hind;-inkscape-font-specification:Hind;text-align:center;white-space:pre;shape-inside:url(#rect2537);display:inline;opacity:1;fill:#495867;fill-opacity:1"><tspan
       x="4218.0132"
       y="330.11077"
       id="tspan2530"><tspan
   style="font-weight:bold;-inkscape-font-specification:'Hind Bold'"
   id="tspan2526">I</tspan>GG <tspan
   style="font-weight:bold;-inkscape-font-specification:'Hind Bold'"
   id="tspan2528">T</tspan>echnik</tspan></text>
</svg>
